<svg xmlns="http://www.w3.org/2000/svg" viewBox="0 0 512 512">
  <rect width="512" height="512" fill="#f7f4ec"/>
  <circle cx="256" cy="256" r="154" fill="#f6bd2a"/>
  <g fill="none" stroke="#17242d" stroke-linecap="round" stroke-width="15">
    <circle cx="256" cy="256" r="45"/>
    <path d="M256 174v-28M256 366v-28M174 256h-28M366 256h-28M198 198l-20-20M334 334l-20-20M314 198l20-20M178 334l20-20"/>
  </g>
  <g transform="rotate(-12 171 344)">
    <rect x="99" y="272" width="156" height="156" rx="34" fill="#17242d" opacity=".2" transform="translate(0 12)"/>
    <rect x="93" y="266" width="156" height="156" rx="34" fill="#167caf"/>
    <circle cx="132" cy="305" r="15" fill="#fff"/>
    <circle cx="210" cy="305" r="15" fill="#fff"/>
    <circle cx="171" cy="344" r="15" fill="#fff"/>
    <circle cx="132" cy="383" r="15" fill="#fff"/>
    <circle cx="210" cy="383" r="15" fill="#fff"/>
  </g>
  <g transform="rotate(12 359 168)">
    <rect x="293" y="102" width="144" height="144" rx="32" fill="#17242d" opacity=".18" transform="translate(0 12)"/>
    <rect x="287" y="96" width="144" height="144" rx="32" fill="#fff"/>
    <circle cx="326" cy="135" r="15" fill="#17242d"/>
    <circle cx="392" cy="201" r="15" fill="#17242d"/>
  </g>
</svg>
